<svg width="12" height="12" viewBox="0 0 12 12" fill="none" xmlns="http://www.w3.org/2000/svg">
<path d="M7.52108 8.64137C6.74247 9.19591 5.79023 9.52248 4.76124 9.52248C2.13191 9.52248 0 7.39056 0 4.76124C0 2.13191 2.13191 0 4.76124 0C7.39056 0 9.52248 2.13191 9.52248 4.76124C9.52248 5.79023 9.19591 6.74247 8.64137 7.52108L11.7698 10.6495C12.0779 10.9576 12.0756 11.4511 11.7698 11.7563L11.7569 11.7692C11.4522 12.0739 10.9553 12.0751 10.65 11.7692L7.52164 8.64081L7.52108 8.64137ZM4.76124 8.40218C6.77216 8.40218 8.40218 6.77216 8.40218 4.76124C8.40218 2.75031 6.77216 1.12029 4.76124 1.12029C2.75031 1.12029 1.12029 2.75031 1.12029 4.76124C1.12029 6.77216 2.75031 8.40218 4.76124 8.40218Z" fill="#8F9299"/>
</svg>
